<svg xmlns="http://www.w3.org/2000/svg" version="1.1" xmlns:xlink="http://www.w3.org/1999/xlink" xmlns:svgjs="http://svgjs.dev/svgjs" width="1500" height="371" viewBox="0 0 1500 371"><g transform="matrix(1,0,0,1,-0.9090909090909918,0.5404818053360714)"><svg viewBox="0 0 396 98" data-background-color="#ffffff" preserveAspectRatio="xMidYMid meet" height="371" width="1500" xmlns="http://www.w3.org/2000/svg" xmlns:xlink="http://www.w3.org/1999/xlink"><g id="tight-bounds" transform="matrix(1,0,0,1,0.2400000000000091,-0.14276877876801564)"><svg viewBox="0 0 395.52 98.28553755753606" height="98.28553755753606" width="395.52"><g><svg viewBox="0 0 563.3913010389032 140.001053999414" height="98.28553755753606" width="395.52"><g transform="matrix(1,0,0,1,167.87130103890323,40.48646474910845)"><svg viewBox="0 0 395.52 59.02812450119711" height="59.02812450119711" width="395.52"><g id="textblocktransform"><svg viewBox="0 0 395.52 59.02812450119711" height="59.02812450119711" width="395.52" id="textblock"><g><svg viewBox="0 0 395.52 59.02812450119711" height="59.02812450119711" width="395.52"><g transform="matrix(1,0,0,1,0,0)"><svg width="395.52" viewBox="5.25 -37.1 250.59 37.4" height="59.02812450119711" data-palette-color="#000000"><path d="M30.35-35L35.35-35 35.35 0 30.35 0 30.35-15.6 10.25-15.6 10.25 0 5.25 0 5.25-35 10.25-35 10.25-19.95 30.35-19.95 30.35-35ZM56.5 0.3Q52.55 0.3 49.4-1.45 46.25-3.2 44.47-6.28 42.7-9.35 42.7-13.25L42.7-13.25Q42.7-17.15 44.47-20.23 46.25-23.3 49.4-25.03 52.55-26.75 56.5-26.75L56.5-26.75Q60.45-26.75 63.57-25.03 66.7-23.3 68.47-20.23 70.25-17.15 70.25-13.25L70.25-13.25Q70.25-9.35 68.47-6.28 66.7-3.2 63.57-1.45 60.45 0.3 56.5 0.3L56.5 0.3ZM56.5-3.9Q59.05-3.9 61.07-5.08 63.1-6.25 64.25-8.38 65.4-10.5 65.4-13.25L65.4-13.25Q65.4-16 64.25-18.13 63.1-20.25 61.07-21.4 59.05-22.55 56.5-22.55L56.5-22.55Q53.95-22.55 51.92-21.4 49.9-20.25 48.72-18.13 47.55-16 47.55-13.25L47.55-13.25Q47.55-10.5 48.72-8.38 49.9-6.25 51.92-5.08 53.95-3.9 56.5-3.9L56.5-3.9ZM110.05-26.75Q115.05-26.75 117.97-23.85 120.9-20.95 120.9-15.25L120.9-15.25 120.9 0 116.09 0 116.09-14.7Q116.09-18.55 114.32-20.5 112.55-22.45 109.25-22.45L109.25-22.45Q105.59-22.45 103.44-20.18 101.3-17.9 101.3-13.65L101.3-13.65 101.3 0 96.5 0 96.5-14.7Q96.5-18.55 94.72-20.5 92.94-22.45 89.64-22.45L89.64-22.45Q86-22.45 83.84-20.18 81.69-17.9 81.69-13.65L81.69-13.65 81.69 0 76.89 0 76.89-26.5 81.5-26.5 81.5-22.55Q82.94-24.6 85.3-25.68 87.64-26.75 90.64-26.75L90.64-26.75Q93.75-26.75 96.14-25.5 98.55-24.25 99.84-21.85L99.84-21.85Q101.34-24.15 104.02-25.45 106.69-26.75 110.05-26.75L110.05-26.75ZM141.84-3.9Q146.59-3.9 149.49-7.1L149.49-7.1 152.09-4Q150.34-1.9 147.67-0.8 144.99 0.3 141.69 0.3L141.69 0.3Q137.49 0.3 134.24-1.43 130.99-3.15 129.22-6.25 127.44-9.35 127.44-13.25L127.44-13.25Q127.44-17.1 129.17-20.2 130.89-23.3 133.92-25.03 136.94-26.75 140.74-26.75L140.74-26.75Q144.34-26.75 147.29-25.13 150.24-23.5 151.99-20.55 153.74-17.6 153.79-13.75L153.79-13.75 132.74-9.65Q133.74-6.9 136.12-5.4 138.49-3.9 141.84-3.9L141.84-3.9ZM140.74-22.7Q138.24-22.7 136.27-21.55 134.29-20.4 133.19-18.32 132.09-16.25 132.09-13.5L132.09-13.5 132.09-13 149.04-16.2Q148.39-19.1 146.14-20.9 143.89-22.7 140.74-22.7L140.74-22.7ZM174.64-26.75Q179.69-26.75 182.66-23.83 185.64-20.9 185.64-15.25L185.64-15.25 185.64 0 180.84 0 180.84-14.7Q180.84-18.55 178.99-20.5 177.14-22.45 173.69-22.45L173.69-22.45Q169.79-22.45 167.54-20.18 165.29-17.9 165.29-13.65L165.29-13.65 165.29 0 160.49 0 160.49-37.1 165.29-37.1 165.29-22.75Q166.79-24.65 169.22-25.7 171.64-26.75 174.64-26.75L174.64-26.75ZM214.44-26.5L219.24-26.5 219.24 0 214.69 0 214.69-4Q213.24-1.95 210.86-0.83 208.49 0.3 205.69 0.3L205.69 0.3Q200.39 0.3 197.34-2.63 194.29-5.55 194.29-11.25L194.29-11.25 194.29-26.5 199.09-26.5 199.09-11.8Q199.09-7.95 200.94-5.98 202.79-4 206.24-4L206.24-4Q210.04-4 212.24-6.3 214.44-8.6 214.44-12.8L214.44-12.8 214.44-26.5ZM242.44-26.75Q246.29-26.75 249.34-25.05 252.39-23.35 254.11-20.3 255.84-17.25 255.84-13.25L255.84-13.25Q255.84-9.25 254.11-6.18 252.39-3.1 249.34-1.4 246.29 0.3 242.44 0.3L242.44 0.3Q239.49 0.3 237.03-0.85 234.59-2 232.99-4.2L232.99-4.2 232.99 0 228.39 0 228.39-37.1 233.19-37.1 233.19-22.5Q234.78-24.6 237.19-25.68 239.59-26.75 242.44-26.75L242.44-26.75ZM242.03-3.9Q244.59-3.9 246.61-5.08 248.64-6.25 249.81-8.38 250.99-10.5 250.99-13.25L250.99-13.25Q250.99-16 249.81-18.13 248.64-20.25 246.61-21.4 244.59-22.55 242.03-22.55L242.03-22.55Q239.53-22.55 237.49-21.4 235.44-20.25 234.28-18.13 233.14-16 233.14-13.25L233.14-13.25Q233.14-10.5 234.28-8.38 235.44-6.25 237.49-5.08 239.53-3.9 242.03-3.9L242.03-3.9Z" opacity="1" transform="matrix(1,0,0,1,0,0)" fill="#000000" class="wordmark-text-0" data-fill-palette-color="primary" id="text-0"></path></svg></g></svg></g></svg></g></svg></g><g><svg viewBox="0 0 140.001053999414 140.001053999414" height="140.001053999414" width="140.001053999414"><g><svg></svg></g><g id="icon-0"><svg viewBox="0 0 140.001053999414 140.001053999414" height="140.001053999414" width="140.001053999414"><g><path d="M0 70.001c0-38.66 31.34-70.001 70.001-70.001 38.66 0 70.001 31.34 70 70.001 0 38.66-31.34 70.001-70 70-38.66 0-70.001-31.34-70.001-70zM70.001 134.678c35.72 0 64.677-28.957 64.677-64.677 0-35.72-28.957-64.677-64.677-64.678-35.72 0-64.677 28.957-64.678 64.678 0 35.72 28.957 64.677 64.678 64.677z" data-fill-palette-color="accent" fill="#0072ff" stroke="transparent"></path></g><g transform="matrix(1,0,0,1,34.16313898228174,32.908716250033414)"><svg viewBox="0 0 71.67477603485054 74.18362149934718" height="74.18362149934718" width="71.67477603485054"><g><svg xmlns="http://www.w3.org/2000/svg" xmlns:xlink="http://www.w3.org/1999/xlink" version="1.1" x="0" y="0" viewBox="6.832000000000001 5.321999999999999 86.33500000000001 89.357" enable-background="new 0 0 100 100" xml:space="preserve" height="74.18362149934718" width="71.67477603485054" class="icon-cg-0" data-fill-palette-color="accent" id="cg-0"><g fill="#0072ff" data-fill-palette-color="accent"><path d="M6.932 43.395c0.129-0.096 0.261-0.194 0.422-0.327l35.08-24.878c3.508-2.783 11.711-2.783 15.22 0l35.079 23.879c0.138 0.114 0.254 0.205 0.366 0.295 0.041 0.394 0.066 0.794 0.066 1.203l0.002-1.15h-0.002v-5.341c0-3.478-1.479-6.437-4.434-8.871L57.653 7.326c-1.422-1.128-3.619-1.791-5.96-2.004h-3.298c-2.34 0.213-4.538 0.876-5.961 2.004L11.355 28.205c-2.954 2.433-4.433 5.392-4.433 8.871l-0.09 6.396 0.09 0.104C6.922 43.515 6.931 43.456 6.932 43.395z" fill="#0072ff" data-fill-palette-color="accent"></path><path d="M54.633 67.592h-9.199c-5.189 0-7.784 2.596-7.784 7.666v19.42h24.648v-19.42C62.299 70.188 59.703 67.592 54.633 67.592z" fill="#0072ff" data-fill-palette-color="accent"></path><path d="M92.731 48.568L57.652 24.689c-3.51-2.783-11.712-2.783-15.22 0L7.352 49.568c-0.165 0.136-0.301 0.237-0.432 0.334v14.622 20.721c0 5.189 4.281 9.434 9.513 9.434h7.416 8.549V72.756c0-7.23 3.701-10.932 11.1-10.932h13.116c7.231 0 10.933 3.701 10.933 10.932v21.922h8.688 7.417c5.232 0 9.514-4.244 9.514-9.434V64.523 48.916C93.032 48.813 92.895 48.702 92.731 48.568z" fill="#0072ff" data-fill-palette-color="accent"></path></g></svg></g></svg></g></svg></g></svg></g></svg></g><defs></defs></svg><rect width="395.52" height="98.28553755753606" fill="none" stroke="none" visibility="hidden"></rect></g></svg></g></svg>